<mxfile host="app.diagrams.net" modified="2021-11-03T11:36:19.656Z" agent="5.0 (Windows NT 10.0; Win64; x64) AppleWebKit/537.36 (KHTML, like Gecko) Chrome/92.0.4515.131 Safari/537.36" etag="073lmsfHcKKSwcALTdCY" version="15.6.6" type="github">
  <diagram id="HU3_-8M6IqhSkoxiqSs4" name="Page-1">
    <mxGraphModel dx="1422" dy="1963" grid="1" gridSize="10" guides="1" tooltips="1" connect="1" arrows="1" fold="1" page="1" pageScale="1" pageWidth="827" pageHeight="1169" math="0" shadow="0">
      <root>
        <mxCell id="0" />
        <mxCell id="1" parent="0" />
        <mxCell id="n4JV1IkBggr-FbLEgCfJ-66" value="" style="endArrow=none;dashed=1;html=1;strokeWidth=5;rounded=0;fontSize=16;fontColor=default;strokeColor=default;labelBackgroundColor=default;" edge="1" parent="1">
          <mxGeometry width="50" height="50" relative="1" as="geometry">
            <mxPoint x="540" y="1260" as="sourcePoint" />
            <mxPoint x="540" y="-80" as="targetPoint" />
          </mxGeometry>
        </mxCell>
        <mxCell id="n4JV1IkBggr-FbLEgCfJ-53" value="" style="rounded=1;whiteSpace=wrap;html=1;fontSize=16;strokeColor=#6c8ebf;fillColor=#dae8fc;arcSize=6;fontColor=default;" vertex="1" parent="1">
          <mxGeometry x="680" y="340" width="360" height="560" as="geometry" />
        </mxCell>
        <mxCell id="n4JV1IkBggr-FbLEgCfJ-51" value="" style="rounded=1;whiteSpace=wrap;html=1;fontSize=16;strokeColor=#6c8ebf;fillColor=#dae8fc;arcSize=6;fontColor=default;" vertex="1" parent="1">
          <mxGeometry x="40" y="640" width="360" height="620" as="geometry" />
        </mxCell>
        <mxCell id="n4JV1IkBggr-FbLEgCfJ-52" value="方案审批及建设工程规划许可" style="text;html=1;strokeColor=none;fillColor=none;align=center;verticalAlign=middle;whiteSpace=wrap;rounded=0;fontSize=16;fontColor=default;" vertex="1" parent="1">
          <mxGeometry x="80" y="640" width="280" height="40" as="geometry" />
        </mxCell>
        <mxCell id="n4JV1IkBggr-FbLEgCfJ-49" value="" style="rounded=1;whiteSpace=wrap;html=1;fontSize=16;strokeColor=#6c8ebf;fillColor=#dae8fc;arcSize=6;fontColor=default;" vertex="1" parent="1">
          <mxGeometry x="40" y="40" width="360" height="560" as="geometry" />
        </mxCell>
        <mxCell id="n4JV1IkBggr-FbLEgCfJ-8" value="" style="rounded=0;whiteSpace=wrap;html=1;fontSize=16;strokeColor=#82b366;fillColor=#d5e8d4;fontColor=default;" vertex="1" parent="1">
          <mxGeometry x="80" y="260" width="280" height="300" as="geometry" />
        </mxCell>
        <mxCell id="n4JV1IkBggr-FbLEgCfJ-3" value="放线总图（带批注意见）" style="shape=note;whiteSpace=wrap;html=1;backgroundOutline=1;darkOpacity=0.05;fontColor=default;strokeColor=default;fillColor=default;fontSize=16;size=19;" vertex="1" parent="1">
          <mxGeometry x="100" y="380" width="240" height="40" as="geometry" />
        </mxCell>
        <mxCell id="n4JV1IkBggr-FbLEgCfJ-4" value="规划总平面图（方案审查通过）" style="shape=note;whiteSpace=wrap;html=1;backgroundOutline=1;darkOpacity=0.05;fontColor=default;strokeColor=default;fillColor=default;fontSize=16;size=19;" vertex="1" parent="1">
          <mxGeometry x="100" y="440" width="240" height="40" as="geometry" />
        </mxCell>
        <mxCell id="n4JV1IkBggr-FbLEgCfJ-6" value="单体方案图纸（方案审查通过）" style="shape=note;whiteSpace=wrap;html=1;backgroundOutline=1;darkOpacity=0.05;fontColor=default;strokeColor=default;fillColor=default;fontSize=16;size=19;" vertex="1" parent="1">
          <mxGeometry x="100" y="500" width="240" height="40" as="geometry" />
        </mxCell>
        <mxCell id="n4JV1IkBggr-FbLEgCfJ-7" value="方案审查通知单" style="shape=note;whiteSpace=wrap;html=1;backgroundOutline=1;darkOpacity=0.05;fontColor=default;strokeColor=default;fillColor=default;fontSize=16;size=19;" vertex="1" parent="1">
          <mxGeometry x="100" y="320" width="240" height="40" as="geometry" />
        </mxCell>
        <mxCell id="n4JV1IkBggr-FbLEgCfJ-15" value="审定成果" style="text;html=1;strokeColor=#82b366;fillColor=#d5e8d4;align=center;verticalAlign=middle;whiteSpace=wrap;rounded=0;fontSize=16;fontColor=default;" vertex="1" parent="1">
          <mxGeometry x="80" y="260" width="280" height="40" as="geometry" />
        </mxCell>
        <mxCell id="n4JV1IkBggr-FbLEgCfJ-16" value="" style="rounded=0;whiteSpace=wrap;html=1;fontSize=16;fontColor=#333333;strokeColor=#666666;fillColor=#f5f5f5;" vertex="1" parent="1">
          <mxGeometry x="80" y="80" width="280" height="180" as="geometry" />
        </mxCell>
        <mxCell id="n4JV1IkBggr-FbLEgCfJ-18" value="规划总平面图" style="shape=note;whiteSpace=wrap;html=1;backgroundOutline=1;darkOpacity=0.05;fontColor=default;strokeColor=default;fillColor=default;fontSize=16;size=19;" vertex="1" parent="1">
          <mxGeometry x="100" y="140" width="240" height="40" as="geometry" />
        </mxCell>
        <mxCell id="n4JV1IkBggr-FbLEgCfJ-19" value="单体方案图纸" style="shape=note;whiteSpace=wrap;html=1;backgroundOutline=1;darkOpacity=0.05;fontColor=default;strokeColor=default;fillColor=default;fontSize=16;size=19;" vertex="1" parent="1">
          <mxGeometry x="100" y="200" width="240" height="40" as="geometry" />
        </mxCell>
        <mxCell id="n4JV1IkBggr-FbLEgCfJ-21" value="申报材料" style="text;html=1;strokeColor=#666666;fillColor=#f5f5f5;align=center;verticalAlign=middle;whiteSpace=wrap;rounded=0;fontSize=16;fontColor=#333333;" vertex="1" parent="1">
          <mxGeometry x="80" y="80" width="280" height="40" as="geometry" />
        </mxCell>
        <mxCell id="n4JV1IkBggr-FbLEgCfJ-23" value="" style="rounded=0;whiteSpace=wrap;html=1;fontSize=16;strokeColor=#666666;fillColor=#f5f5f5;fontColor=#333333;" vertex="1" parent="1">
          <mxGeometry x="720" y="380" width="280" height="300" as="geometry" />
        </mxCell>
        <mxCell id="n4JV1IkBggr-FbLEgCfJ-24" value="放线总图（带批注意见）" style="shape=note;whiteSpace=wrap;html=1;backgroundOutline=1;darkOpacity=0.05;fontColor=default;strokeColor=default;fillColor=default;fontSize=16;size=19;" vertex="1" parent="1">
          <mxGeometry x="740" y="500" width="240" height="40" as="geometry" />
        </mxCell>
        <mxCell id="n4JV1IkBggr-FbLEgCfJ-25" value="规划总平面图（方案审查通过）" style="shape=note;whiteSpace=wrap;html=1;backgroundOutline=1;darkOpacity=0.05;fontColor=default;strokeColor=default;fillColor=default;fontSize=16;size=19;" vertex="1" parent="1">
          <mxGeometry x="740" y="560" width="240" height="40" as="geometry" />
        </mxCell>
        <mxCell id="n4JV1IkBggr-FbLEgCfJ-26" value="单体方案图纸（方案审查通过）" style="shape=note;whiteSpace=wrap;html=1;backgroundOutline=1;darkOpacity=0.05;fontColor=default;strokeColor=default;fillColor=default;fontSize=16;size=19;" vertex="1" parent="1">
          <mxGeometry x="740" y="620" width="240" height="40" as="geometry" />
        </mxCell>
        <mxCell id="n4JV1IkBggr-FbLEgCfJ-27" value="方案审查通知单" style="shape=note;whiteSpace=wrap;html=1;backgroundOutline=1;darkOpacity=0.05;fontColor=default;strokeColor=default;fillColor=default;fontSize=16;size=19;" vertex="1" parent="1">
          <mxGeometry x="740" y="440" width="240" height="40" as="geometry" />
        </mxCell>
        <mxCell id="n4JV1IkBggr-FbLEgCfJ-28" value="申报材料" style="text;html=1;strokeColor=#666666;fillColor=#f5f5f5;align=center;verticalAlign=middle;whiteSpace=wrap;rounded=0;fontSize=16;fontColor=#333333;" vertex="1" parent="1">
          <mxGeometry x="720" y="380" width="280" height="40" as="geometry" />
        </mxCell>
        <mxCell id="n4JV1IkBggr-FbLEgCfJ-30" value="" style="rounded=0;whiteSpace=wrap;html=1;fontSize=16;strokeColor=#82b366;fillColor=#d5e8d4;fontColor=default;" vertex="1" parent="1">
          <mxGeometry x="720" y="680" width="280" height="180" as="geometry" />
        </mxCell>
        <mxCell id="n4JV1IkBggr-FbLEgCfJ-31" value="放线定位图" style="shape=note;whiteSpace=wrap;html=1;backgroundOutline=1;darkOpacity=0.05;fontColor=default;strokeColor=default;fillColor=default;fontSize=16;size=19;" vertex="1" parent="1">
          <mxGeometry x="740" y="800" width="240" height="40" as="geometry" />
        </mxCell>
        <mxCell id="n4JV1IkBggr-FbLEgCfJ-34" value="测绘成果报告" style="shape=note;whiteSpace=wrap;html=1;backgroundOutline=1;darkOpacity=0.05;fontColor=default;strokeColor=default;fillColor=default;fontSize=16;size=19;" vertex="1" parent="1">
          <mxGeometry x="740" y="740" width="240" height="40" as="geometry" />
        </mxCell>
        <mxCell id="n4JV1IkBggr-FbLEgCfJ-35" value="审定成果" style="text;html=1;strokeColor=#82b366;fillColor=#d5e8d4;align=center;verticalAlign=middle;whiteSpace=wrap;rounded=0;fontSize=16;fontColor=default;" vertex="1" parent="1">
          <mxGeometry x="720" y="680" width="280" height="40" as="geometry" />
        </mxCell>
        <mxCell id="n4JV1IkBggr-FbLEgCfJ-36" value="" style="rounded=0;whiteSpace=wrap;html=1;fontSize=16;strokeColor=#666666;fillColor=#f5f5f5;fontColor=default;" vertex="1" parent="1">
          <mxGeometry x="80" y="680" width="280" height="300" as="geometry" />
        </mxCell>
        <mxCell id="n4JV1IkBggr-FbLEgCfJ-38" value="规划总平面图（方案审查通过）" style="shape=note;whiteSpace=wrap;html=1;backgroundOutline=1;darkOpacity=0.05;fontColor=default;strokeColor=default;fillColor=default;fontSize=16;size=19;" vertex="1" parent="1">
          <mxGeometry x="100" y="860" width="240" height="40" as="geometry" />
        </mxCell>
        <mxCell id="n4JV1IkBggr-FbLEgCfJ-39" value="单体方案图纸（方案审查通过）" style="shape=note;whiteSpace=wrap;html=1;backgroundOutline=1;darkOpacity=0.05;fontColor=default;strokeColor=default;fillColor=default;fontSize=16;size=19;" vertex="1" parent="1">
          <mxGeometry x="100" y="920" width="240" height="40" as="geometry" />
        </mxCell>
        <mxCell id="n4JV1IkBggr-FbLEgCfJ-41" value="申报材料" style="text;html=1;strokeColor=#666666;fillColor=#f5f5f5;align=center;verticalAlign=middle;whiteSpace=wrap;rounded=0;fontSize=16;fontColor=default;" vertex="1" parent="1">
          <mxGeometry x="80" y="680" width="280" height="40" as="geometry" />
        </mxCell>
        <mxCell id="n4JV1IkBggr-FbLEgCfJ-42" value="测绘成果报告" style="shape=note;whiteSpace=wrap;html=1;backgroundOutline=1;darkOpacity=0.05;fontColor=default;strokeColor=default;fillColor=default;fontSize=16;size=19;" vertex="1" parent="1">
          <mxGeometry x="100" y="740" width="240" height="40" as="geometry" />
        </mxCell>
        <mxCell id="n4JV1IkBggr-FbLEgCfJ-43" value="放线定位图" style="shape=note;whiteSpace=wrap;html=1;backgroundOutline=1;darkOpacity=0.05;fontColor=default;strokeColor=default;fillColor=default;fontSize=16;size=19;" vertex="1" parent="1">
          <mxGeometry x="100" y="800" width="240" height="40" as="geometry" />
        </mxCell>
        <mxCell id="n4JV1IkBggr-FbLEgCfJ-44" value="" style="rounded=0;whiteSpace=wrap;html=1;fontSize=16;strokeColor=#82b366;fillColor=#d5e8d4;fontColor=default;" vertex="1" parent="1">
          <mxGeometry x="80" y="980" width="280" height="240" as="geometry" />
        </mxCell>
        <mxCell id="n4JV1IkBggr-FbLEgCfJ-45" value="规划总平面图（审定、盖章）" style="shape=note;whiteSpace=wrap;html=1;backgroundOutline=1;darkOpacity=0.05;fontColor=default;strokeColor=default;fillColor=default;fontSize=16;size=19;" vertex="1" parent="1">
          <mxGeometry x="100" y="1100" width="240" height="40" as="geometry" />
        </mxCell>
        <mxCell id="n4JV1IkBggr-FbLEgCfJ-46" value="放线定位图（审定、盖章）" style="shape=note;whiteSpace=wrap;html=1;backgroundOutline=1;darkOpacity=0.05;fontColor=default;strokeColor=default;fillColor=default;fontSize=16;size=19;" vertex="1" parent="1">
          <mxGeometry x="100" y="1040" width="240" height="40" as="geometry" />
        </mxCell>
        <mxCell id="n4JV1IkBggr-FbLEgCfJ-47" value="审定成果" style="text;html=1;strokeColor=#82b366;fillColor=#d5e8d4;align=center;verticalAlign=middle;whiteSpace=wrap;rounded=0;fontSize=16;fontColor=default;" vertex="1" parent="1">
          <mxGeometry x="80" y="980" width="280" height="40" as="geometry" />
        </mxCell>
        <mxCell id="n4JV1IkBggr-FbLEgCfJ-48" value="单体方案图纸（审定、盖章）" style="shape=note;whiteSpace=wrap;html=1;backgroundOutline=1;darkOpacity=0.05;fontColor=default;strokeColor=default;fillColor=default;fontSize=16;size=19;" vertex="1" parent="1">
          <mxGeometry x="100" y="1160" width="240" height="40" as="geometry" />
        </mxCell>
        <mxCell id="n4JV1IkBggr-FbLEgCfJ-50" value="方案审查" style="text;html=1;strokeColor=none;fillColor=none;align=center;verticalAlign=middle;whiteSpace=wrap;rounded=0;fontSize=16;fontColor=default;" vertex="1" parent="1">
          <mxGeometry x="80" y="40" width="280" height="40" as="geometry" />
        </mxCell>
        <mxCell id="n4JV1IkBggr-FbLEgCfJ-54" value="建设项目测绘服务（放线、定位）" style="text;html=1;strokeColor=none;fillColor=none;align=center;verticalAlign=middle;whiteSpace=wrap;rounded=0;fontSize=16;fontColor=default;" vertex="1" parent="1">
          <mxGeometry x="720" y="340" width="280" height="40" as="geometry" />
        </mxCell>
        <mxCell id="n4JV1IkBggr-FbLEgCfJ-58" value="&lt;br&gt;&lt;br&gt;&lt;br&gt;建设单位" style="shape=actor;whiteSpace=wrap;html=1;fontSize=16;fontColor=default;strokeColor=default;fillColor=default;" vertex="1" parent="1">
          <mxGeometry x="500" y="380" width="80" height="120" as="geometry" />
        </mxCell>
        <mxCell id="n4JV1IkBggr-FbLEgCfJ-59" value="下载材料" style="shape=singleArrow;whiteSpace=wrap;html=1;fontSize=16;fontColor=default;strokeColor=default;fillColor=default;arrowWidth=0.5;arrowSize=0.22857142857142856;" vertex="1" parent="1">
          <mxGeometry x="360" y="410" width="140" height="50" as="geometry" />
        </mxCell>
        <mxCell id="n4JV1IkBggr-FbLEgCfJ-60" value="上传材料" style="shape=singleArrow;whiteSpace=wrap;html=1;fontSize=16;fontColor=default;strokeColor=default;fillColor=default;arrowWidth=0.5;arrowSize=0.22857142857142856;" vertex="1" parent="1">
          <mxGeometry x="580" y="410" width="140" height="50" as="geometry" />
        </mxCell>
        <mxCell id="n4JV1IkBggr-FbLEgCfJ-62" value="&lt;br&gt;&lt;br&gt;&lt;br&gt;建设单位" style="shape=actor;whiteSpace=wrap;html=1;fontSize=16;fontColor=default;strokeColor=default;fillColor=default;" vertex="1" parent="1">
          <mxGeometry x="500" y="760" width="80" height="120" as="geometry" />
        </mxCell>
        <mxCell id="n4JV1IkBggr-FbLEgCfJ-64" value="下载材料" style="shape=singleArrow;direction=west;whiteSpace=wrap;html=1;fontSize=16;fontColor=default;strokeColor=default;fillColor=default;arrowWidth=0.5;arrowSize=0.2;" vertex="1" parent="1">
          <mxGeometry x="580" y="780" width="140" height="50" as="geometry" />
        </mxCell>
        <mxCell id="n4JV1IkBggr-FbLEgCfJ-65" value="上传材料" style="shape=singleArrow;direction=west;whiteSpace=wrap;html=1;fontSize=16;fontColor=default;strokeColor=default;fillColor=default;arrowWidth=0.5;arrowSize=0.2;" vertex="1" parent="1">
          <mxGeometry x="360" y="780" width="140" height="50" as="geometry" />
        </mxCell>
        <mxCell id="n4JV1IkBggr-FbLEgCfJ-67" value="新区“多规合一”平台" style="text;html=1;strokeColor=none;fillColor=none;align=center;verticalAlign=middle;whiteSpace=wrap;rounded=0;fontSize=16;fontColor=default;" vertex="1" parent="1">
          <mxGeometry x="80" y="-40" width="280" height="40" as="geometry" />
        </mxCell>
        <mxCell id="n4JV1IkBggr-FbLEgCfJ-68" value="“多测合一”平台" style="text;html=1;strokeColor=none;fillColor=none;align=center;verticalAlign=middle;whiteSpace=wrap;rounded=0;fontSize=16;fontColor=default;" vertex="1" parent="1">
          <mxGeometry x="720" y="-40" width="280" height="40" as="geometry" />
        </mxCell>
      </root>
    </mxGraphModel>
  </diagram>
</mxfile>
